:FULLY-SPECIFIED
:FORCE-ALL-JOINTS-BE-3DOF
:DEGREES
1325
root -1.70557 14.5429 8.1416 -7.78151 30.6048 3.0844
lfemur 3.28955 0.700837 -15.2599
ltibia 56.1445 -0 0
lfoot -30.8329 29.7556 0.00887971
ltoes -17.3027 0 0
rfemur -37.4578 -4.26011 -3.74193
rtibia 31.4071 -0 0
rfoot 32.0934 1.33884 -0.0413033
rtoes 5.41265 -0 0
lowerback 12.4429 0.408221 -12.4679
upperback -1.40732 -1.37134 -0.0825306
thorax -8.29823 -0.0826827 7.22714
lowerneck -1.1278 -10.6339 -11.3588
upperneck 10.9242 -14.9234 9.86649
head 5.05999 -7.37347 3.97888
lclavicle 5.14852e-14 7.15625e-15 0
lhumerus -71.149 -19.687 106.836
lradius 98.6225 -0 0
lwrist 62.88 0 0
lhand -13.4641 29.9452 -0.00524118
lfingers 7.12502 -0 0
lthumb 12.6457 59.5423 -0.00509426
rclavicle 5.14852e-14 7.15625e-15 0
rhumerus 63.5402 -0.521996 -33.6919
rradius 77.767 -0 0
rwrist 27.086 0 0
rhand -39.5204 -39.9517 -0.00828992
rfingers 7.12502 -0 0
rthumb -12.5054 -69.5563 -0.00827421
1326
root -1.72928 14.5183 8.34895 -7.48844 30.6659 3.12775
lfemur 3.55671 0.687744 -15.0726
ltibia 55.7348 -0 0
lfoot -30.6303 29.9966 0.019554
ltoes -17.0286 0 0
rfemur -38.004 -4.80209 -3.42449
rtibia 32.5301 -0 0
rfoot 30.884 1.52274 -0.0910353
rtoes 4.931 -0 0
lowerback 12.4211 0.448261 -12.4436
upperback -1.45119 -1.31529 -0.0949011
thorax -8.34648 -0.0520541 7.18853
lowerneck -1.0455 -10.6862 -11.3931
upperneck 10.7721 -14.9954 9.91502
head 5.01489 -7.41136 4.00085
lclavicle 5.14852e-14 7.15625e-15 0
lhumerus -71.2062 -19.6289 106.757
lradius 98.7318 -0 0
lwrist 62.8239 0 0
lhand -13.5281 30.3952 -0.0115424
lfingers 7.12502 -0 0
lthumb 12.5841 59.9958 -0.0112189
rclavicle 5.14852e-14 7.15625e-15 0
rhumerus 63.5188 -0.949789 -33.4804
rradius 77.8498 -0 0
rwrist 27.2345 0 0
rhand -39.6744 -39.6558 -0.0182554
rfingers 7.12502 -0 0
rthumb -12.6538 -69.2497 -0.0182208
1327
root -1.75302 14.4931 8.54967 -7.13748 30.7388 3.18013
lfemur 3.87629 0.670931 -14.8486
ltibia 55.2447 -0 0
lfoot -30.3878 30.2851 0.031205
ltoes -16.7007 0 0
rfemur -38.6621 -5.44652 -3.03753
rtibia 33.8737 -0 0
rfoot 29.4368 1.74409 -0.145419
rtoes 4.35475 -0 0
lowerback 12.3951 0.496179 -12.4145
upperback -1.50369 -1.24824 -0.109758
thorax -8.40423 -0.0154519 7.1423
lowerneck -0.946985 -10.7487 -11.4343
upperneck 10.59 -15.0813 9.97335
head 4.96092 -7.45667 4.02718
lclavicle 5.14852e-14 7.15625e-15 0
lhumerus -71.2748 -19.5596 106.662
lradius 98.8626 -0 0
lwrist 62.7568 0 0
lhand -13.6047 30.9335 -0.0184211
lfingers 7.12502 -0 0
lthumb 12.5102 60.5384 -0.0179048
rclavicle 5.14852e-14 7.15625e-15 0
rhumerus 63.4911 -1.4615 -33.2271
rradius 77.9489 -0 0
rwrist 27.4122 0 0
rhand -39.8587 -39.3016 -0.0291328
rfingers 7.12502 -0 0
rthumb -12.8314 -68.8828 -0.0290778
1328
root -1.77665 14.4677 8.74335 -6.73635 30.8217 3.24061
lfemur 4.24109 0.650208 -14.5929
ltibia 54.685 -0 0
lfoot -30.1109 30.6145 0.0430152
ltoes -16.3262 0 0
rfemur -39.4197 -6.17684 -2.5861
rtibia 35.4079 -0 0
rfoot 27.7841 1.99841 -0.200655
rtoes 3.6968 -0 0
lowerback 12.3654 0.550907 -12.3814
upperback -1.56366 -1.1717 -0.126795
thorax -8.47021 0.0262831 7.08948
lowerneck -0.834417 -10.82 -11.4814
upperneck 10.3819 -15.1792 10.0403
head 4.89925 -7.50838 4.0573
lclavicle 5.14852e-14 7.15625e-15 0
lhumerus -71.3532 -19.4804 106.554
lradius 99.0119 -0 0
lwrist 62.6802 0 0
lhand -13.6922 31.5482 -0.0253949
lfingers 7.12502 -0 0
lthumb 12.4258 61.158 -0.0246832
rclavicle 5.14852e-14 7.15625e-15 0
rhumerus 63.4567 -2.04562 -32.9376
rradius 78.0619 -0 0
rwrist 27.6151 0 0
rhand -40.0693 -38.8972 -0.0401592
rfingers 7.12502 -0 0
rthumb -13.0342 -68.4639 -0.0400834
1329
root -1.80004 14.442 8.92953 -6.29274 30.9128 3.30827
lfemur 4.64393 0.625427 -14.3107
ltibia 54.0668 -0 0
lfoot -29.805 30.9784 0.05421
ltoes -15.9126 0 0
rfemur -40.2646 -6.97651 -2.07543
rtibia 37.1024 -0 0
rfoot 25.9584 2.28105 -0.253113
rtoes 2.97003 -0 0
lowerback 12.3326 0.611379 -12.3448
upperback -1.62992 -1.08717 -0.145707
thorax -8.54313 0.0723119 7.03107
lowerneck -0.709975 -10.8987 -11.5337
upperneck 10.1517 -15.2871 10.1148
head 4.83109 -7.56545 4.09063
lclavicle 5.14852e-14 7.15625e-15 0
lhumerus -71.4399 -19.3932 106.434
lradius 99.1768 -0 0
lwrist 62.5955 0 0
lhand -13.7889 32.2272 -0.0320063
lfingers 7.12502 -0 0
lthumb 12.3325 61.8424 -0.0311093
rclavicle 5.14852e-14 7.15625e-15 0
rhumerus 63.4153 -2.69061 -32.6172
rradius 78.1869 -0 0
rwrist 27.8393 0 0
rhand -40.3019 -38.4505 -0.050611
rfingers 7.12502 -0 0
rthumb -13.2584 -68.0011 -0.0505158
1330
root -1.82305 14.4165 9.1078 -5.8144 31.0104 3.38212
lfemur 5.07761 0.596521 -14.0069
ltibia 53.401 -0 0
lfoot -29.4755 31.3703 0.0640926
ltoes -15.4672 0 0
rfemur -41.1842 -7.82918 -1.51121
rtibia 38.9273 -0 0
rfoot 23.9919 2.58713 -0.299503
rtoes 2.18736 -0 0
lowerback 12.2974 0.676526 -12.3054
upperback -1.70131 -0.996169 -0.166183
thorax -8.62171 0.121798 6.96811
lowerneck -0.575843 -10.9833 -11.5902
upperneck 9.90359 -15.4029 10.1955
head 4.75765 -7.62687 4.12661
lclavicle 5.14852e-14 7.15625e-15 0
lhumerus -71.5334 -19.2995 106.305
lradius 99.3544 -0 0
lwrist 62.5044 0 0
lhand -13.8932 32.9584 -0.0378435
lfingers 7.12502 -0 0
lthumb 12.232 62.5794 -0.036783
rclavicle 5.14852e-14 7.15625e-15 0
rhumerus 63.3666 -3.38494 -32.2714
rradius 78.3214 -0 0
rwrist 28.0806 0 0
rhand -40.5525 -37.9694 -0.0598379
rfingers 7.12502 -0 0
rthumb -13.4998 -67.5027 -0.0597255
1331
root -1.84555 14.3911 9.27771 -5.30909 31.1128 3.46113
lfemur 5.53495 0.563537 -13.6868
ltibia 52.6987 -0 0
lfoot -29.1278 31.7838 0.0720744
ltoes -14.9973 0 0
rfemur -42.1656 -8.71878 -0.899735
rtibia 40.8524 -0 0
rfoot 21.9171 2.91155 -0.337027
rtoes 1.36169 -0 0
lowerback 12.2602 0.745278 -12.2639
upperback -1.77665 -0.900194 -0.187906
thorax -8.70467 0.17391 6.90161
lowerneck -0.434207 -11.0724 -11.65
upperneck 9.64147 -15.5247 10.2813
head 4.68011 -7.69162 4.16466
lclavicle 5.14852e-14 7.15625e-15 0
lhumerus -71.6323 -19.2008 106.169
lradius 99.5417 -0 0
lwrist 62.4082 0 0
lhand -14.0033 33.7298 -0.0425585
lfingers 7.12502 -0 0
lthumb 12.1258 63.3569 -0.041366
rclavicle 5.14852e-14 7.15625e-15 0
rhumerus 63.3106 -4.11709 -31.9057
rradius 78.4633 -0 0
rwrist 28.3353 0 0
rhand -40.817 -37.4618 -0.0672903
rfingers 7.12502 -0 0
rthumb -13.7546 -66.9769 -0.067164
1332
root -1.86741 14.3663 9.43882 -4.7846 31.2183 3.54423
lfemur 6.00875 0.526655 -13.3552
ltibia 51.9707 -0 0
lfoot -28.7674 32.2125 0.0776985
ltoes -14.5103 0 0
rfemur -43.1955 -9.62967 -0.248148
rtibia 42.8478 -0 0
rfoot 19.7665 3.249 -0.363497
rtoes 0.505915 -0 0
lowerback 12.2218 0.816565 -12.2209
upperback -1.85478 -0.80075 -0.210554
thorax -8.79072 0.227819 6.83261
lowerneck -0.287261 -11.1646 -11.7123
upperneck 9.36943 -15.6506 10.3708
head 4.59969 -7.75868 4.2042
lclavicle 5.14852e-14 7.15625e-15 0
lhumerus -71.735 -19.0988 106.027
lradius 99.7359 -0 0
lwrist 62.3085 0 0
lhand -14.1174 34.5293 -0.0458811
lfingers 7.12502 -0 0
lthumb 12.0158 64.1628 -0.0445955
rclavicle 5.14852e-14 7.15625e-15 0
rhumerus 63.2476 -4.87554 -31.5255
rradius 78.6104 -0 0
rwrist 28.5992 0 0
rhand -41.0912 -36.9357 -0.0725413
rfingers 7.12502 -0 0
rthumb -14.0188 -66.4318 -0.0724053
1333
root -1.88849 14.342 9.59072 -4.24879 31.3253 3.63026
lfemur 6.49185 0.486209 -13.0173
ltibia 51.2281 -0 0
lfoot -28.3997 32.6498 0.080657
ltoes -14.0135 0 0
rfemur -44.2598 -10.5467 0.435474
rtibia 44.8832 -0 0
rfoot 17.5725 3.59401 -0.377432
rtoes -0.367062 0 0
lowerback 12.1826 0.889315 -12.1771
upperback -1.93451 -0.699339 -0.233796
thorax -8.87856 0.282706 6.76214
lowerneck -0.137209 -11.2585 -11.7761
upperneck 9.09154 -15.7786 10.4629
head 4.5176 -7.82702 4.24464
lclavicle 5.14852e-14 7.15625e-15 0
lhumerus -71.8399 -18.995 105.883
lradius 99.934 -0 0
lwrist 62.2068 0 0
lhand -14.2339 35.3449 -0.047629
lfingers 7.12502 -0 0
lthumb 11.9035 64.9849 -0.0462945
rclavicle 5.14852e-14 7.15625e-15 0
rhumerus 63.1781 -5.64879 -31.1363
rradius 78.7605 -0 0
rwrist 28.8684 0 0
rhand -41.3709 -36.399 -0.0753037
rfingers 7.12502 -0 0
rthumb -14.2883 -65.8758 -0.0751625
